<?xml version="1.0" encoding="UTF-8"?>
<!DOCTYPE svg PUBLIC "-//W3C//DTD SVG 1.1//EN" "http://www.w3.org/Graphics/SVG/1.1/DTD/svg11.dtd">
<svg xmlns="http://www.w3.org/2000/svg" version="1.1" width="54px" height="52px" style="shape-rendering:geometricPrecision; text-rendering:geometricPrecision; image-rendering:optimizeQuality; fill-rule:evenodd; clip-rule:evenodd" xmlns:xlink="http://www.w3.org/1999/xlink">
<g><path fill="#30c3eb" fill-opacity="0.996" stroke="#30c3eb" stroke-width="0.5" stroke-opacity="0.996" d="M 32.03,0 c 2.65,0 5.29,0 7.94,0 c 1.67,0.77 3.35,1.59 5.04,2.45 c 5.27,3.05 6.38,6.64 8.99,11.57 c 0,2.65 0,5.3 0,7.95 c -1.01,0.21 -1.35,4.1 -2.45,5.04 c -16.03,25.89 -54.67,-9.54 -19.52,-27.01 Z"/></g>
<g><path fill="#ffffff" fill-opacity="0.996" stroke="#ffffff" stroke-width="0.5" stroke-opacity="0.996" d="M 9.98,51.79 c -1.67,0.03 -3.33,0.05 -4.99,0.08 c -2.37,-1.46 -3.28,-2.78 -4.99,-4.9 c 0,-1.64 0,-3.29 0,-4.94 c 10.37,-13.63 21.82,4.03 9.98,9.76 Z"/></g>
</svg>
