<svg xmlns="http://www.w3.org/2000/svg" xmlns:xlink="http://www.w3.org/1999/xlink" width="40" zoomAndPan="magnify" viewBox="0 0 30 30.000001" height="40" preserveAspectRatio="xMidYMid meet" version="1.0"><defs><clipPath id="36981b1629"><path d="M 3.386719 4.035156 L 26.613281 4.035156 L 26.613281 25 L 3.386719 25 Z M 3.386719 4.035156 " clip-rule="nonzero"/></clipPath></defs><g clip-path="url(#36981b1629)"><path fill="#30c3eb" d="M 23.796875 14.523438 C 23.796875 14.9375 23.796875 15.351562 23.796875 15.765625 C 23.796875 18.628906 23.796875 21.5 23.796875 24.363281 C 23.796875 24.699219 23.511719 24.980469 23.179688 24.980469 C 21.132812 24.980469 19.085938 24.980469 17.042969 24.980469 C 16.707031 24.980469 16.425781 24.699219 16.425781 24.363281 C 16.425781 22.875 16.425781 21.378906 16.425781 19.886719 C 15.496094 19.882812 14.566406 19.882812 13.636719 19.878906 C 13.636719 21.375 13.636719 22.871094 13.636719 24.363281 C 13.636719 24.699219 13.351562 24.980469 13.019531 24.980469 C 10.996094 24.980469 8.972656 24.980469 6.957031 24.980469 C 6.621094 24.980469 6.339844 24.699219 6.339844 24.363281 C 6.339844 23.953125 6.339844 23.535156 6.339844 23.125 C 6.339844 20.257812 6.339844 17.390625 6.339844 14.523438 C 6.339844 13.726562 7.570312 13.730469 7.570312 14.523438 C 7.570312 14.9375 7.570312 15.351562 7.570312 15.765625 C 7.570312 18.425781 7.570312 21.085938 7.570312 23.75 C 9.183594 23.75 10.792969 23.75 12.402344 23.75 C 12.402344 22.253906 12.402344 20.757812 12.402344 19.261719 C 12.402344 18.929688 12.6875 18.648438 13.019531 18.648438 C 14.363281 18.652344 15.703125 18.65625 17.046875 18.660156 C 17.378906 18.660156 17.660156 18.945312 17.660156 19.277344 C 17.660156 20.769531 17.660156 22.257812 17.660156 23.75 C 19.296875 23.75 20.929688 23.75 22.5625 23.75 C 22.5625 23.539062 22.5625 23.332031 22.5625 23.125 C 22.5625 20.257812 22.5625 17.390625 22.5625 14.523438 C 22.5625 13.730469 23.796875 13.730469 23.796875 14.523438 Z M 26.082031 13.855469 C 22.984375 11.0625 19.894531 8.265625 16.800781 5.46875 C 16.363281 5.070312 15.925781 4.679688 15.488281 4.28125 C 15.230469 4.050781 14.871094 4.050781 14.617188 4.28125 C 11.511719 7.082031 8.40625 9.875 5.296875 12.671875 C 4.859375 13.070312 4.417969 13.464844 3.980469 13.863281 C 3.386719 14.394531 4.261719 15.265625 4.851562 14.730469 C 7.957031 11.9375 11.058594 9.140625 14.164062 6.34375 C 14.460938 6.082031 14.75 5.816406 15.046875 5.546875 C 17.996094 8.214844 20.945312 10.875 23.890625 13.542969 C 24.332031 13.941406 24.765625 14.332031 25.207031 14.730469 C 25.792969 15.257812 26.667969 14.394531 26.082031 13.855469 Z M 21.347656 7.609375 C 21.347656 7.363281 21.347656 7.121094 21.347656 6.878906 C 21.847656 6.878906 22.347656 6.878906 22.847656 6.878906 C 22.847656 7.980469 22.847656 9.082031 22.847656 10.183594 C 22.847656 10.972656 24.078125 10.976562 24.078125 10.183594 C 24.078125 8.875 24.078125 7.570312 24.078125 6.261719 C 24.078125 5.929688 23.796875 5.644531 23.460938 5.644531 C 22.550781 5.644531 21.644531 5.644531 20.730469 5.644531 C 20.398438 5.644531 20.117188 5.929688 20.117188 6.261719 C 20.117188 6.710938 20.117188 7.160156 20.117188 7.609375 C 20.117188 8.40625 21.347656 8.40625 21.347656 7.609375 Z M 21.347656 7.609375 " fill-opacity="1" fill-rule="nonzero"/></g></svg>