<?xml version="1.0" encoding="UTF-8"?>
<!DOCTYPE svg PUBLIC "-//W3C//DTD SVG 1.1//EN" "http://www.w3.org/Graphics/SVG/1.1/DTD/svg11.dtd">
<svg xmlns="http://www.w3.org/2000/svg" version="1.1" width="10px" height="6px" style="shape-rendering:geometricPrecision; text-rendering:geometricPrecision; image-rendering:optimizeQuality; fill-rule:evenodd; clip-rule:evenodd" xmlns:xlink="http://www.w3.org/1999/xlink">
<g><path fill="#000000" fill-opacity="0.031" d="M 0,0 c 0.33,0 0.65,0 0.98,0 c 0,0.8 0.11,1.58 0.33,2.35 c 1.12,1.36 2.36,2.58 3.73,3.65 c -1.68,0 -3.36,0 -5.04,0 c 0,-2 0,-4 0,-6 Z M 1.98,0 c 2.67,0 5.35,0 8.02,0 c 0,0.33 0,0.65 0,0.98 c -2.59,-0.58 -2.66,1.18 -4.56,1.98 c -0.55,0.02 -1.03,-0.16 -1.44,-0.54 c -0.95,-0.6 -1.63,-1.41 -2.02,-2.42 Z M 10,1.97 c 0,1.34 0,2.69 0,4.03 c -1.34,0 -2.68,0 -4.02,0 c 0.59,-1.09 2.89,-3.8 4.02,-4.03 Z"/></g>
<g><path fill="#000000" fill-opacity="0.902" d="M 0.98,0 c 0.33,0 0.67,0 1,0 c 0.39,1.01 1.07,1.82 2.02,2.42 c 0.41,0.38 0.89,0.56 1.44,0.54 c 1.9,-0.8 1.97,-2.56 4.56,-1.98 c 0,0.33 0,0.66 0,0.99 c -1.13,0.23 -3.43,2.94 -4.02,4.03 c -0.31,0 -0.63,0 -0.94,0 c -1.37,-1.07 -2.61,-2.29 -3.73,-3.65 c -0.22,-0.77 -0.33,-1.55 -0.33,-2.35 Z"/></g>
</svg>
