<?xml version="1.0" encoding="UTF-8"?>
<!DOCTYPE svg PUBLIC "-//W3C//DTD SVG 1.1//EN" "http://www.w3.org/Graphics/SVG/1.1/DTD/svg11.dtd">
<svg xmlns="http://www.w3.org/2000/svg" version="1.1" width="10px" height="9px" style="shape-rendering:geometricPrecision; text-rendering:geometricPrecision; image-rendering:optimizeQuality; fill-rule:evenodd; clip-rule:evenodd" xmlns:xlink="http://www.w3.org/1999/xlink">
<g><path fill="#ffffff" fill-opacity="0.035" d="M 0,0 c 0.33,0 0.67,0 1,0 c -0.44,2.4 8.07,-0.36 4.6,3.03 c -1.85,1.69 -3.72,3.35 -5.6,5 c 0,-2.68 0,-5.35 0,-8.03 Z M 10,8 c 0,0.34 0,0.67 0,1 c -2.67,0 -5.35,0 -8.02,0 c -0.03,-0.42 0.08,-0.79 0.34,-1.13 c 1.7,-1.63 3.48,-3.17 5.32,-4.61 c 2.53,-0.77 -0.38,4.59 2.36,4.74 Z"/></g>
<g><path fill="#ffffff" fill-opacity="0.929" d="M 1,0 c 3,0 6,0 9,0 c 0,2.67 0,5.34 0,8 c -2.74,-0.15 0.17,-5.51 -2.36,-4.74 c -1.84,1.44 -3.62,2.98 -5.32,4.61 c -0.26,0.34 -0.37,0.71 -0.34,1.13 c -0.66,0 -1.32,0 -1.98,0 c 0,-0.32 0,-0.65 0,-0.97 c 1.88,-1.65 3.75,-3.31 5.6,-5 c 3.47,-3.39 -5.04,-0.63 -4.6,-3.03 Z"/></g>
</svg>
